{
  "accessors": [
    {
      "bufferView": 2,
      "componentType": 5126,
      "count": 1344,
      "max": [
        91.06877136230469,
        -5.682225227355957,
        0.37650901079177856
      ],
      "min": [
        76.1893081665039,
        -5.812465190887451,
        0.27247101068496704
      ],
      "type": "VEC3"
    },
    {
      "bufferView": 2,
      "byteOffset": 16128,
      "componentType": 5126,
      "count": 1344,
      "max": [
        1.0,
        1.0,
        1.0
      ],
      "min": [
        -1.0,
        -1.0,
        -1.0
      ],
      "type": "VEC3"
    },
    {
      "bufferView": 1,
      "componentType": 5126,
      "count": 1344,
      "max": [
        0.013158000074326992,
        1.0
      ],
      "min": [
        0.0,
        0.0
      ],
      "type": "VEC2"
    },
    {
      "bufferView": 0,
      "componentType": 5125,
      "count": 1848,
      "type": "SCALAR"
    },
    {
      "bufferView": 2,
      "byteOffset": 32256,
      "componentType": 5126,
      "count": 10662,
      "max": [
        91.23709106445313,
        9.287101745605469,
        11.839559555053711
      ],
      "min": [
        75.998046875,
        -1.4320529699325562,
        0.26621100306510925
      ],
      "type": "VEC3"
    },
    {
      "bufferView": 2,
      "byteOffset": 160200,
      "componentType": 5126,
      "count": 10662,
      "max": [
        1.0,
        1.0,
        1.0
      ],
      "min": [
        -1.0,
        -1.0,
        -1.0
      ],
      "type": "VEC3"
    },
    {
      "bufferView": 1,
      "byteOffset": 10752,
      "componentType": 5126,
      "count": 10662,
      "max": [
        0.9997239708900452,
        0.9931169748306274
      ],
      "min": [
        0.00027600000612437725,
        0.00027600000612437725
      ],
      "type": "VEC2"
    },
    {
      "bufferView": 0,
      "byteOffset": 7392,
      "componentType": 5125,
      "count": 21723,
      "type": "SCALAR"
    },
    {
      "bufferView": 2,
      "byteOffset": 288144,
      "componentType": 5126,
      "count": 14548,
      "max": [
        79.55667114257813,
        -5.302775859832764,
        5.657462120056152
      ],
      "min": [
        79.23411560058594,
        -7.157650947570801,
        0.22026699781417847
      ],
      "type": "VEC3"
    },
    {
      "bufferView": 2,
      "byteOffset": 462720,
      "componentType": 5126,
      "count": 14548,
      "max": [
        1.0,
        1.0,
        1.0
      ],
      "min": [
        -1.0,
        -1.0,
        -1.0
      ],
      "type": "VEC3"
    },
    {
      "bufferView": 1,
      "byteOffset": 96048,
      "componentType": 5126,
      "count": 14548,
      "max": [
        1.0,
        1.0
      ],
      "min": [
        0.0,
        0.0
      ],
      "type": "VEC2"
    },
    {
      "bufferView": 0,
      "byteOffset": 94284,
      "componentType": 5125,
      "count": 79488,
      "type": "SCALAR"
    },
    {
      "bufferView": 2,
      "byteOffset": 637296,
      "componentType": 5126,
      "count": 14548,
      "max": [
        87.73611450195313,
        -5.302775859832764,
        5.657462120056152
      ],
      "min": [
        87.41355895996094,
        -7.157650947570801,
        0.22026699781417847
      ],
      "type": "VEC3"
    },
    {
      "bufferView": 2,
      "byteOffset": 811872,
      "componentType": 5126,
      "count": 14548,
      "max": [
        1.0,
        1.0,
        1.0
      ],
      "min": [
        -1.0,
        -1.0,
        -1.0
      ],
      "type": "VEC3"
    },
    {
      "bufferView": 1,
      "byteOffset": 212432,
      "componentType": 5126,
      "count": 14548,
      "max": [
        1.0,
        1.0
      ],
      "min": [
        0.0,
        0.0
      ],
      "type": "VEC2"
    },
    {
      "bufferView": 0,
      "byteOffset": 412236,
      "componentType": 5125,
      "count": 79488,
      "type": "SCALAR"
    },
    {
      "bufferView": 2,
      "byteOffset": 986448,
      "componentType": 5126,
      "count": 2958,
      "max": [
        87.70176696777344,
        0.6741080284118652,
        8.639423370361328
      ],
      "min": [
        79.26846313476563,
        -7.155051231384277,
        1.094599962234497
      ],
      "type": "VEC3"
    },
    {
      "bufferView": 2,
      "byteOffset": 1021944,
      "componentType": 5126,
      "count": 2958,
      "max": [
        0.9998093247413635,
        0.9977527856826782,
        0.0504014678299427
      ],
      "min": [
        -0.9998117089271545,
        -1.0,
        -0.9999916553497314
      ],
      "type": "VEC3"
    },
    {
      "bufferView": 1,
      "byteOffset": 328816,
      "componentType": 5126,
      "count": 2958,
      "max": [
        0.9238730072975159,
        0.9469079971313477
      ],
      "min": [
        0.125,
        0.5267170071601868
      ],
      "type": "VEC2"
    },
    {
      "bufferView": 0,
      "byteOffset": 730188,
      "componentType": 5125,
      "count": 14706,
      "type": "SCALAR"
    },
    {
      "bufferView": 2,
      "byteOffset": 1057440,
      "componentType": 5126,
      "count": 25,
      "max": [
        91.01630401611328,
        9.229497909545898,
        0.24096499383449554
      ],
      "min": [
        76.20455169677734,
        -9.26720142364502,
        0.23867599666118622
      ],
      "type": "VEC3"
    },
    {
      "bufferView": 2,
      "byteOffset": 1057740,
      "componentType": 5126,
      "count": 25,
      "max": [
        0.0,
        -0.0,
        1.0
      ],
      "min": [
        0.0,
        -0.0,
        1.0
      ],
      "type": "VEC3"
    },
    {
      "bufferView": 1,
      "byteOffset": 352480,
      "componentType": 5126,
      "count": 25,
      "max": [
        1.0,
        1.0
      ],
      "min": [
        0.0,
        0.0
      ],
      "type": "VEC2"
    },
    {
      "bufferView": 0,
      "byteOffset": 789012,
      "componentType": 5125,
      "count": 54,
      "type": "SCALAR"
    },
    {
      "bufferView": 2,
      "byteOffset": 1058040,
      "componentType": 5126,
      "count": 4704,
      "max": [
        84.3169174194336,
        -3.766637086868286,
        1.1455299854278564
      ],
      "min": [
        80.14012145996094,
        -6.791176795959473,
        0.2458229959011078
      ],
      "type": "VEC3"
    },
    {
      "bufferView": 2,
      "byteOffset": 1114488,
      "componentType": 5126,
      "count": 4704,
      "max": [
        0.9997738003730774,
        0.9999806880950928,
        0.9982025027275085
      ],
      "min": [
        -0.9999789595603943,
        -0.9998889565467834,
        -0.9998530149459839
      ],
      "type": "VEC3"
    },
    {
      "bufferView": 1,
      "byteOffset": 352680,
      "componentType": 5126,
      "count": 4704,
      "max": [
        0.9949179887771606,
        0.9894120097160339
      ],
      "min": [
        0.005501999985426664,
        0.01309600006788969
      ],
      "type": "VEC2"
    },
    {
      "bufferView": 0,
      "byteOffset": 789228,
      "componentType": 5125,
      "count": 15396,
      "type": "SCALAR"
    },
    {
      "bufferView": 2,
      "byteOffset": 1170936,
      "componentType": 5126,
      "count": 5723,
      "max": [
        87.33019256591797,
        0.43232598900794983,
        1.741665005683899
      ],
      "min": [
        83.95735931396484,
        -3.061224937438965,
        0.24202699959278107
      ],
      "type": "VEC3"
    },
    {
      "bufferView": 2,
      "byteOffset": 1239612,
      "componentType": 5126,
      "count": 5723,
      "max": [
        0.9994122982025146,
        0.9998040795326233,
        0.9997212290763855
      ],
      "min": [
        -0.9999135732650757,
        -0.9994348287582397,
        -0.9999759197235107
      ],
      "type": "VEC3"
    },
    {
      "bufferView": 1,
      "byteOffset": 390312,
      "componentType": 5126,
      "count": 5723,
      "max": [
        0.9957209825515747,
        0.9952080249786377
      ],
      "min": [
        0.003662999952211976,
        0.0041669998317956924
      ],
      "type": "VEC2"
    },
    {
      "bufferView": 0,
      "byteOffset": 850812,
      "componentType": 5125,
      "count": 25032,
      "type": "SCALAR"
    }
  ],
  "asset": {
    "extras": {
      "author": "hellotaia (https://sketchfab.com/hellotaia)",
      "license": "CC-BY-4.0 (http://creativecommons.org/licenses/by/4.0/)",
      "source": "https://sketchfab.com/3d-models/cinema-building-d446658d7bb645a2a80afe11f35a947d",
      "title": "cinema building"
    },
    "generator": "Sketchfab-12.68.0",
    "version": "2.0"
  },
  "bufferViews": [
    {
      "buffer": 0,
      "byteLength": 950940,
      "name": "floatBufferViews",
      "target": 34963
    },
    {
      "buffer": 0,
      "byteLength": 436096,
      "byteOffset": 950940,
      "byteStride": 8,
      "name": "floatBufferViews",
      "target": 34962
    },
    {
      "buffer": 0,
      "byteLength": 1308288,
      "byteOffset": 1387036,
      "byteStride": 12,
      "name": "floatBufferViews",
      "target": 34962
    }
  ],
  "buffers": [
    {
      "byteLength": 2695324,
      "uri": "scene.bin"
    }
  ],
  "extensionsRequired": [
    "KHR_materials_pbrSpecularGlossiness"
  ],
  "extensionsUsed": [
    "KHR_materials_pbrSpecularGlossiness"
  ],
  "materials": [
    {
      "doubleSided": true,
      "extensions": {
        "KHR_materials_pbrSpecularGlossiness": {
          "diffuseFactor": [
            1.0,
            1.0,
            1.0,
            1.0
          ],
          "glossinessFactor": 0.0,
          "specularFactor": [
            1.0,
            1.0,
            1.0
          ]
        }
      },
      "name": "Material"
    },
    {
      "doubleSided": true,
      "extensions": {
        "KHR_materials_pbrSpecularGlossiness": {
          "diffuseFactor": [
            0.42732217013540547,
            0.42732217013540547,
            0.42732217013540547,
            1.0
          ],
          "glossinessFactor": 0.0,
          "specularFactor": [
            0.0,
            0.0,
            0.0
          ]
        }
      },
      "name": "None"
    },
    {
      "doubleSided": true,
      "emissiveFactor": [
        0.9180832252327007,
        1.0,
        1.0
      ],
      "extensions": {
        "KHR_materials_pbrSpecularGlossiness": {
          "diffuseFactor": [
            1.0,
            1.0,
            1.0,
            1.0
          ],
          "glossinessFactor": 0.4,
          "specularFactor": [
            0.0,
            0.0,
            0.0
          ]
        }
      },
      "name": "emission"
    },
    {
      "doubleSided": true,
      "extensions": {
        "KHR_materials_pbrSpecularGlossiness": {
          "diffuseFactor": [
            0.03819108768217719,
            0.03819108768217719,
            0.03819108768217719,
            1.0
          ],
          "glossinessFactor": 1.0,
          "specularFactor": [
            0.9137360232019408,
            0.9137360232019408,
            0.9137360232019408
          ]
        }
      },
      "name": "human"
    }
  ],
  "meshes": [
    {
      "name": "Object_0",
      "primitives": [
        {
          "attributes": {
            "NORMAL": 1,
            "POSITION": 0,
            "TEXCOORD_0": 2
          },
          "indices": 3,
          "material": 0,
          "mode": 4
        }
      ]
    },
    {
      "name": "Object_1",
      "primitives": [
        {
          "attributes": {
            "NORMAL": 5,
            "POSITION": 4,
            "TEXCOORD_0": 6
          },
          "indices": 7,
          "material": 0,
          "mode": 4
        }
      ]
    },
    {
      "name": "Object_2",
      "primitives": [
        {
          "attributes": {
            "NORMAL": 9,
            "POSITION": 8,
            "TEXCOORD_0": 10
          },
          "indices": 11,
          "material": 0,
          "mode": 4
        }
      ]
    },
    {
      "name": "Object_3",
      "primitives": [
        {
          "attributes": {
            "NORMAL": 13,
            "POSITION": 12,
            "TEXCOORD_0": 14
          },
          "indices": 15,
          "material": 0,
          "mode": 4
        }
      ]
    },
    {
      "name": "Object_4",
      "primitives": [
        {
          "attributes": {
            "NORMAL": 17,
            "POSITION": 16,
            "TEXCOORD_0": 18
          },
          "indices": 19,
          "material": 2,
          "mode": 4
        }
      ]
    },
    {
      "name": "Object_5",
      "primitives": [
        {
          "attributes": {
            "NORMAL": 21,
            "POSITION": 20,
            "TEXCOORD_0": 22
          },
          "indices": 23,
          "material": 1,
          "mode": 4
        }
      ]
    },
    {
      "name": "Object_6",
      "primitives": [
        {
          "attributes": {
            "NORMAL": 25,
            "POSITION": 24,
            "TEXCOORD_0": 26
          },
          "indices": 27,
          "material": 3,
          "mode": 4
        }
      ]
    },
    {
      "name": "Object_7",
      "primitives": [
        {
          "attributes": {
            "NORMAL": 29,
            "POSITION": 28,
            "TEXCOORD_0": 30
          },
          "indices": 31,
          "material": 3,
          "mode": 4
        }
      ]
    }
  ],
  "nodes": [
    {
      "children": [
        1
      ],
      "matrix": [
        1.0,
        0.0,
        0.0,
        0.0,
        0.0,
        2.220446049250313e-16,
        -1.0,
        0.0,
        0.0,
        1.0,
        2.220446049250313e-16,
        0.0,
        0.0,
        0.0,
        0.0,
        1.0
      ],
      "name": "Sketchfab_model"
    },
    {
      "children": [
        2,
        3,
        4,
        5,
        6,
        7,
        8,
        9
      ],
      "name": "cinema2d.obj.cleaner.materialmerger.gles"
    },
    {
      "mesh": 0,
      "name": "Object_2"
    },
    {
      "mesh": 1,
      "name": "Object_3"
    },
    {
      "mesh": 2,
      "name": "Object_4"
    },
    {
      "mesh": 3,
      "name": "Object_5"
    },
    {
      "mesh": 4,
      "name": "Object_6"
    },
    {
      "mesh": 5,
      "name": "Object_7"
    },
    {
      "mesh": 6,
      "name": "Object_8"
    },
    {
      "mesh": 7,
      "name": "Object_9"
    }
  ],
  "scene": 0,
  "scenes": [
    {
      "name": "Sketchfab_Scene",
      "nodes": [
        0
      ]
    }
  ]
}
