{
  "accessors": [
    {
      "bufferView": 2,
      "componentType": 5126,
      "count": 5841,
      "max": [
        374.9164123535156,
        250.4499969482422,
        1825.935546875
      ],
      "min": [
        -398.03350830078125,
        -287.01849365234375,
        21.212799072265625
      ],
      "type": "VEC3"
    },
    {
      "bufferView": 2,
      "byteOffset": 70092,
      "componentType": 5126,
      "count": 5841,
      "max": [
        1.0,
        0.9999890327453613,
        0.9999998807907104
      ],
      "min": [
        -1.0,
        -0.9999971389770508,
        -0.9999998807907104
      ],
      "type": "VEC3"
    },
    {
      "bufferView": 3,
      "componentType": 5126,
      "count": 5841,
      "max": [
        1.0,
        1.0,
        0.9997977614402771,
        1.0
      ],
      "min": [
        -1.0,
        -1.0,
        -0.9999853372573853,
        -1.0
      ],
      "type": "VEC4"
    },
    {
      "bufferView": 1,
      "componentType": 5126,
      "count": 5841,
      "max": [
        0.9883000254631042,
        0.9994999766349792
      ],
      "min": [
        0.0005000000237487257,
        0.0005000000237487257
      ],
      "type": "VEC2"
    },
    {
      "bufferView": 0,
      "componentType": 5125,
      "count": 18156,
      "type": "SCALAR"
    },
    {
      "bufferView": 2,
      "byteOffset": 140184,
      "componentType": 5126,
      "count": 21003,
      "max": [
        449.8132019042969,
        -50.167999267578125,
        1285.7325439453125
      ],
      "min": [
        -351.0810852050781,
        -585.769775390625,
        707.63232421875
      ],
      "type": "VEC3"
    },
    {
      "bufferView": 2,
      "byteOffset": 392220,
      "componentType": 5126,
      "count": 21003,
      "max": [
        0.9991846084594727,
        0.9996137022972107,
        0.999699056148529
      ],
      "min": [
        -0.9991692304611206,
        -0.9996137022972107,
        -0.999830424785614
      ],
      "type": "VEC3"
    },
    {
      "bufferView": 3,
      "byteOffset": 93456,
      "componentType": 5126,
      "count": 21003,
      "max": [
        0.9965206980705261,
        0.9980797171592712,
        0.9999868273735046,
        1.0
      ],
      "min": [
        -0.9987191557884216,
        -0.9969952702522278,
        -0.9996007680892944,
        -1.0
      ],
      "type": "VEC4"
    },
    {
      "bufferView": 1,
      "byteOffset": 46728,
      "componentType": 5126,
      "count": 21003,
      "max": [
        0.9965999722480774,
        0.9890999794006348
      ],
      "min": [
        0.0005000000237487257,
        0.0005000000237487257
      ],
      "type": "VEC2"
    },
    {
      "bufferView": 0,
      "byteOffset": 72624,
      "componentType": 5125,
      "count": 74376,
      "type": "SCALAR"
    },
    {
      "bufferView": 2,
      "byteOffset": 644256,
      "componentType": 5126,
      "count": 15569,
      "max": [
        449.8132019042969,
        -50.167999267578125,
        1285.7325439453125
      ],
      "min": [
        -350.8799133300781,
        -585.669921875,
        707.63232421875
      ],
      "type": "VEC3"
    },
    {
      "bufferView": 2,
      "byteOffset": 831084,
      "componentType": 5126,
      "count": 15569,
      "max": [
        0.9999462366104126,
        0.9956282377243042,
        0.9990643262863159
      ],
      "min": [
        -0.9945145845413208,
        -0.9980323910713196,
        -0.9995701909065247
      ],
      "type": "VEC3"
    },
    {
      "bufferView": 3,
      "byteOffset": 429504,
      "componentType": 5126,
      "count": 15569,
      "max": [
        0.9999275803565979,
        0.9978659152984619,
        0.9986295700073242,
        1.0
      ],
      "min": [
        -0.9998843669891357,
        -0.9908146858215332,
        -0.9996544122695923,
        -1.0
      ],
      "type": "VEC4"
    },
    {
      "bufferView": 1,
      "byteOffset": 214752,
      "componentType": 5126,
      "count": 15569,
      "max": [
        0.998199999332428,
        0.9987000226974487
      ],
      "min": [
        0.0005000000237487257,
        0.0005000000237487257
      ],
      "type": "VEC2"
    },
    {
      "bufferView": 0,
      "byteOffset": 370128,
      "componentType": 5125,
      "count": 49086,
      "type": "SCALAR"
    },
    {
      "bufferView": 2,
      "byteOffset": 1017912,
      "componentType": 5126,
      "count": 5145,
      "max": [
        439.5633850097656,
        -56.81549835205078,
        1277.750244140625
      ],
      "min": [
        -351.0810852050781,
        -585.769775390625,
        707.63232421875
      ],
      "type": "VEC3"
    },
    {
      "bufferView": 2,
      "byteOffset": 1079652,
      "componentType": 5126,
      "count": 5145,
      "max": [
        0.9996750950813293,
        0.9866819977760315,
        0.9992116689682007
      ],
      "min": [
        -0.9909133315086365,
        -0.9866819977760315,
        -0.9997519850730896
      ],
      "type": "VEC3"
    },
    {
      "bufferView": 3,
      "byteOffset": 678608,
      "componentType": 5126,
      "count": 5145,
      "max": [
        0.9858652949333191,
        0.9990289211273193,
        0.997826337814331,
        1.0
      ],
      "min": [
        -0.9597651958465576,
        -0.9959608912467957,
        -0.9963361024856567,
        -1.0
      ],
      "type": "VEC4"
    },
    {
      "bufferView": 1,
      "byteOffset": 339304,
      "componentType": 5126,
      "count": 5145,
      "max": [
        0.9994999766349792,
        0.9855999946594238
      ],
      "min": [
        0.0005000000237487257,
        0.0005000000237487257
      ],
      "type": "VEC2"
    },
    {
      "bufferView": 0,
      "byteOffset": 566472,
      "componentType": 5125,
      "count": 14124,
      "type": "SCALAR"
    }
  ],
  "asset": {
    "extras": {
      "author": "Bzovius (https://sketchfab.com/Bzovius)",
      "license": "CC-BY-4.0 (http://creativecommons.org/licenses/by/4.0/)",
      "source": "https://sketchfab.com/3d-models/russian-soldier-66df4b2856194d40a546afe2d1d77cfe",
      "title": "Russian Soldier"
    },
    "generator": "Sketchfab-12.67.0",
    "version": "2.0"
  },
  "bufferViews": [
    {
      "buffer": 0,
      "byteLength": 622968,
      "name": "floatBufferViews",
      "target": 34963
    },
    {
      "buffer": 0,
      "byteLength": 380464,
      "byteOffset": 622968,
      "byteStride": 8,
      "name": "floatBufferViews",
      "target": 34962
    },
    {
      "buffer": 0,
      "byteLength": 1141392,
      "byteOffset": 1003432,
      "byteStride": 12,
      "name": "floatBufferViews",
      "target": 34962
    },
    {
      "buffer": 0,
      "byteLength": 760928,
      "byteOffset": 2144824,
      "byteStride": 16,
      "name": "floatBufferViews",
      "target": 34962
    }
  ],
  "buffers": [
    {
      "byteLength": 2905752,
      "uri": "scene.bin"
    }
  ],
  "images": [
    {
      "uri": "textures/material_baseColor.png"
    },
    {
      "uri": "textures/material_metallicRoughness.png"
    },
    {
      "uri": "textures/material_normal.png"
    },
    {
      "uri": "textures/material_1_baseColor.png"
    },
    {
      "uri": "textures/material_1_metallicRoughness.png"
    },
    {
      "uri": "textures/material_1_normal.png"
    }
  ],
  "materials": [
    {
      "doubleSided": true,
      "name": "material",
      "normalTexture": {
        "index": 2
      },
      "pbrMetallicRoughness": {
        "baseColorTexture": {
          "index": 0
        },
        "metallicRoughnessTexture": {
          "index": 1
        }
      }
    },
    {
      "doubleSided": true,
      "name": "material_1",
      "normalTexture": {
        "index": 5
      },
      "pbrMetallicRoughness": {
        "baseColorTexture": {
          "index": 3
        },
        "metallicRoughnessTexture": {
          "index": 4
        }
      }
    }
  ],
  "meshes": [
    {
      "name": "Object_0",
      "primitives": [
        {
          "attributes": {
            "NORMAL": 1,
            "POSITION": 0,
            "TANGENT": 2,
            "TEXCOORD_0": 3
          },
          "indices": 4,
          "material": 1,
          "mode": 4
        }
      ]
    },
    {
      "name": "Object_1",
      "primitives": [
        {
          "attributes": {
            "NORMAL": 6,
            "POSITION": 5,
            "TANGENT": 7,
            "TEXCOORD_0": 8
          },
          "indices": 9,
          "material": 0,
          "mode": 4
        }
      ]
    },
    {
      "name": "Object_2",
      "primitives": [
        {
          "attributes": {
            "NORMAL": 11,
            "POSITION": 10,
            "TANGENT": 12,
            "TEXCOORD_0": 13
          },
          "indices": 14,
          "material": 0,
          "mode": 4
        }
      ]
    },
    {
      "name": "Object_3",
      "primitives": [
        {
          "attributes": {
            "NORMAL": 16,
            "POSITION": 15,
            "TANGENT": 17,
            "TEXCOORD_0": 18
          },
          "indices": 19,
          "material": 0,
          "mode": 4
        }
      ]
    }
  ],
  "nodes": [
    {
      "children": [
        1
      ],
      "matrix": [
        1.0,
        0.0,
        0.0,
        0.0,
        0.0,
        2.220446049250313e-16,
        -1.0,
        0.0,
        0.0,
        1.0,
        2.220446049250313e-16,
        0.0,
        0.0,
        0.0,
        0.0,
        1.0
      ],
      "name": "Sketchfab_model"
    },
    {
      "children": [
        2,
        3,
        4,
        5
      ],
      "name": "Poza.obj.cleaner.materialmerger.gles"
    },
    {
      "mesh": 0,
      "name": "Object_2"
    },
    {
      "mesh": 1,
      "name": "Object_3"
    },
    {
      "mesh": 2,
      "name": "Object_4"
    },
    {
      "mesh": 3,
      "name": "Object_5"
    }
  ],
  "samplers": [
    {
      "magFilter": 9729,
      "minFilter": 9987,
      "wrapS": 10497,
      "wrapT": 10497
    }
  ],
  "scene": 0,
  "scenes": [
    {
      "name": "Sketchfab_Scene",
      "nodes": [
        0
      ]
    }
  ],
  "textures": [
    {
      "sampler": 0,
      "source": 0
    },
    {
      "sampler": 0,
      "source": 1
    },
    {
      "sampler": 0,
      "source": 2
    },
    {
      "sampler": 0,
      "source": 3
    },
    {
      "sampler": 0,
      "source": 4
    },
    {
      "sampler": 0,
      "source": 5
    }
  ]
}
