{
  "accessors": [
    {
      "bufferView": 2,
      "componentType": 5126,
      "count": 6034,
      "max": [
        1.5025608539581299,
        1.2308638095855713,
        4.9053792953491211
      ],
      "min": [
        0.92025554180145264,
        0.64855849742889404,
        -0.0024343014229089022
      ],
      "type": "VEC3"
    },
    {
      "bufferView": 2,
      "byteOffset": 72408,
      "componentType": 5126,
      "count": 6034,
      "max": [
        1,
        1,
        1
      ],
      "min": [
        -0.99671566486358643,
        -0.99671530723571777,
        -1
      ],
      "type": "VEC3"
    },
    {
      "bufferView": 3,
      "componentType": 5126,
      "count": 6034,
      "max": [
        1,
        1,
        0.064390450716018677,
        1
      ],
      "min": [
        -1,
        -0.99939185380935669,
        -0.088156871497631073,
        1
      ],
      "type": "VEC4"
    },
    {
      "bufferView": 3,
      "byteOffset": 96544,
      "componentType": 5126,
      "count": 6034,
      "max": [
        1,
        1,
        1,
        1
      ],
      "min": [
        1,
        1,
        1,
        1
      ],
      "type": "VEC4"
    },
    {
      "bufferView": 1,
      "componentType": 5126,
      "count": 6034,
      "max": [
        5.4526205062866211,
        16.720615386962891
      ],
      "min": [
        -5.4526205062866211,
        -3.5591592788696289
      ],
      "type": "VEC2"
    },
    {
      "bufferView": 0,
      "componentType": 5125,
      "count": 9249,
      "max": [
        6033
      ],
      "min": [
        0
      ],
      "type": "SCALAR"
    },
    {
      "bufferView": 2,
      "byteOffset": 144816,
      "componentType": 5126,
      "count": 647,
      "max": [
        1.4810857772827148,
        1.2171801328659058,
        4.5295324325561523
      ],
      "min": [
        0.9417305588722229,
        0.66224223375320435,
        3.9332845211029053
      ],
      "type": "VEC3"
    },
    {
      "bufferView": 2,
      "byteOffset": 152580,
      "componentType": 5126,
      "count": 647,
      "max": [
        1,
        0.99699556827545166,
        1
      ],
      "min": [
        -0.99875897169113159,
        -0.99699527025222778,
        -1
      ],
      "type": "VEC3"
    },
    {
      "bufferView": 3,
      "byteOffset": 193088,
      "componentType": 5126,
      "count": 647,
      "max": [
        1,
        0.99875926971435547,
        5.4278178140521049e-05,
        1
      ],
      "min": [
        -1,
        -0.99875897169113159,
        -5.4126332543091848e-05,
        1
      ],
      "type": "VEC4"
    },
    {
      "bufferView": 3,
      "byteOffset": 203440,
      "componentType": 5126,
      "count": 647,
      "max": [
        1,
        1,
        1,
        1
      ],
      "min": [
        1,
        1,
        1,
        1
      ],
      "type": "VEC4"
    },
    {
      "bufferView": 1,
      "byteOffset": 48272,
      "componentType": 5126,
      "count": 647,
      "max": [
        0.83097934722900391,
        2.3299267292022705
      ],
      "min": [
        -0.83097934722900391,
        -0.75376373529434204
      ],
      "type": "VEC2"
    },
    {
      "bufferView": 0,
      "byteOffset": 36996,
      "componentType": 5125,
      "count": 1086,
      "max": [
        646
      ],
      "min": [
        0
      ],
      "type": "SCALAR"
    },
    {
      "bufferView": 2,
      "byteOffset": 160344,
      "componentType": 5126,
      "count": 888,
      "max": [
        1.2495260238647461,
        0.9778289794921875,
        4.1002068519592285
      ],
      "min": [
        1.1732903718948364,
        0.90159338712692261,
        4.0052070617675781
      ],
      "type": "VEC3"
    },
    {
      "bufferView": 2,
      "byteOffset": 171000,
      "componentType": 5126,
      "count": 888,
      "max": [
        0.99770307540893555,
        0.99770307540893555,
        1
      ],
      "min": [
        -0.99770224094390869,
        -0.997702956199646,
        -0.47694501280784607
      ],
      "type": "VEC3"
    },
    {
      "bufferView": 3,
      "byteOffset": 213792,
      "componentType": 5126,
      "count": 888,
      "max": [
        1,
        0.99998623132705688,
        9.9229337138240226e-06,
        1
      ],
      "min": [
        -0.99998623132705688,
        -0.99998682737350464,
        -1.217668250319548e-05,
        1
      ],
      "type": "VEC4"
    },
    {
      "bufferView": 3,
      "byteOffset": 228000,
      "componentType": 5126,
      "count": 888,
      "max": [
        1,
        1,
        1,
        1
      ],
      "min": [
        1,
        1,
        1,
        1
      ],
      "type": "VEC4"
    },
    {
      "bufferView": 0,
      "byteOffset": 41340,
      "componentType": 5125,
      "count": 1362,
      "max": [
        887
      ],
      "min": [
        0
      ],
      "type": "SCALAR"
    },
    {
      "bufferView": 2,
      "byteOffset": 181656,
      "componentType": 5126,
      "count": 65,
      "max": [
        1.4517054557800293,
        1.2093887329101562,
        4.8158202171325684
      ],
      "min": [
        0.97111093997955322,
        0.67003357410430908,
        4.006260871887207
      ],
      "type": "VEC3"
    },
    {
      "bufferView": 2,
      "byteOffset": 182436,
      "componentType": 5126,
      "count": 65,
      "max": [
        1,
        0,
        1
      ],
      "min": [
        0,
        0,
        0
      ],
      "type": "VEC3"
    },
    {
      "bufferView": 3,
      "byteOffset": 242208,
      "componentType": 5126,
      "count": 65,
      "max": [
        0,
        0,
        0,
        1
      ],
      "min": [
        0,
        0,
        0,
        1
      ],
      "type": "VEC4"
    },
    {
      "bufferView": 3,
      "byteOffset": 243248,
      "componentType": 5126,
      "count": 65,
      "max": [
        1,
        1,
        1,
        1
      ],
      "min": [
        1,
        1,
        1,
        1
      ],
      "type": "VEC4"
    },
    {
      "bufferView": 0,
      "byteOffset": 46788,
      "componentType": 5125,
      "count": 78,
      "max": [
        64
      ],
      "min": [
        0
      ],
      "type": "SCALAR"
    }
  ],
  "asset": {
    "extras": {
      "author": "pawlnq (https://sketchfab.com/pawlnq)",
      "license": "CC-BY-4.0 (http://creativecommons.org/licenses/by/4.0/)",
      "source": "https://sketchfab.com/models/f65611997883426bb7c56336b8fd4c36",
      "title": "Street lamp"
    },
    "generator": "Sketchfab-3.20.7",
    "version": "2.0"
  },
  "bufferViews": [
    {
      "buffer": 0,
      "byteLength": 47100,
      "byteOffset": 0,
      "name": "floatBufferViews",
      "target": 34963
    },
    {
      "buffer": 0,
      "byteLength": 53448,
      "byteOffset": 47100,
      "byteStride": 8,
      "name": "floatBufferViews",
      "target": 34962
    },
    {
      "buffer": 0,
      "byteLength": 183216,
      "byteOffset": 100548,
      "byteStride": 12,
      "name": "floatBufferViews",
      "target": 34962
    },
    {
      "buffer": 0,
      "byteLength": 244288,
      "byteOffset": 283764,
      "byteStride": 16,
      "name": "floatBufferViews",
      "target": 34962
    }
  ],
  "buffers": [
    {
      "byteLength": 528052,
      "uri": "scene.bin"
    }
  ],
  "images": [
    {
      "uri": "textures/material_baseColor.jpeg"
    },
    {
      "uri": "textures/Formica_baseColor.jpeg"
    }
  ],
  "materials": [
    {
      "doubleSided": true,
      "emissiveFactor": [
        0,
        0,
        0
      ],
      "name": "Formica",
      "pbrMetallicRoughness": {
        "baseColorFactor": [
          1,
          1,
          1,
          1
        ],
        "baseColorTexture": {
          "index": 1,
          "texCoord": 0
        },
        "metallicFactor": 0,
        "roughnessFactor": 0.59999999999999998
      }
    },
    {
      "doubleSided": true,
      "emissiveFactor": [
        0,
        0,
        0
      ],
      "name": "material",
      "pbrMetallicRoughness": {
        "baseColorFactor": [
          1,
          1,
          1,
          1
        ],
        "baseColorTexture": {
          "index": 0,
          "texCoord": 0
        },
        "metallicFactor": 0,
        "roughnessFactor": 0.59999999999999998
      }
    },
    {
      "doubleSided": true,
      "emissiveFactor": [
        0,
        0,
        0
      ],
      "name": "Color_C0",
      "pbrMetallicRoughness": {
        "baseColorFactor": [
          1,
          0.89803898329999998,
          0.80000001190000003,
          1
        ],
        "metallicFactor": 0,
        "roughnessFactor": 0.59999999999999998
      }
    },
    {
      "doubleSided": true,
      "emissiveFactor": [
        0,
        0,
        0
      ],
      "name": "Foregrou",
      "pbrMetallicRoughness": {
        "baseColorFactor": [
          0,
          0,
          0,
          1
        ],
        "metallicFactor": 0,
        "roughnessFactor": 0.59999999999999998
      }
    }
  ],
  "meshes": [
    {
      "primitives": [
        {
          "attributes": {
            "COLOR_0": 3,
            "NORMAL": 1,
            "POSITION": 0,
            "TANGENT": 2,
            "TEXCOORD_0": 4
          },
          "indices": 5,
          "material": 0,
          "mode": 4
        }
      ]
    },
    {
      "primitives": [
        {
          "attributes": {
            "COLOR_0": 9,
            "NORMAL": 7,
            "POSITION": 6,
            "TANGENT": 8,
            "TEXCOORD_0": 10
          },
          "indices": 11,
          "material": 1,
          "mode": 4
        }
      ]
    },
    {
      "primitives": [
        {
          "attributes": {
            "COLOR_0": 15,
            "NORMAL": 13,
            "POSITION": 12,
            "TANGENT": 14
          },
          "indices": 16,
          "material": 2,
          "mode": 4
        }
      ]
    },
    {
      "primitives": [
        {
          "attributes": {
            "COLOR_0": 20,
            "NORMAL": 18,
            "POSITION": 17,
            "TANGENT": 19
          },
          "indices": 21,
          "material": 3,
          "mode": 4
        }
      ]
    }
  ],
  "nodes": [
    {
      "children": [
        1
      ],
      "name": "RootNode (gltf orientation matrix)",
      "rotation": [
        -0.70710678118654746,
        -0,
        -0,
        0.70710678118654757
      ]
    },
    {
      "children": [
        2
      ],
      "name": "RootNode (model correction matrix)"
    },
    {
      "children": [
        3
      ],
      "name": "latarnia.3ds"
    },
    {
      "children": [
        4
      ],
      "name": "Model"
    },
    {
      "children": [
        5,
        6,
        7,
        8
      ],
      "name": "Component_"
    },
    {
      "mesh": 0,
      "name": ""
    },
    {
      "mesh": 1,
      "name": ""
    },
    {
      "mesh": 2,
      "name": ""
    },
    {
      "mesh": 3,
      "name": ""
    }
  ],
  "samplers": [
    {
      "magFilter": 9729,
      "minFilter": 9987,
      "wrapS": 10497,
      "wrapT": 10497
    }
  ],
  "scene": 0,
  "scenes": [
    {
      "name": "OSG_Scene",
      "nodes": [
        0
      ]
    }
  ],
  "textures": [
    {
      "sampler": 0,
      "source": 0
    },
    {
      "sampler": 0,
      "source": 1
    }
  ]
}

