{
  "accessors": [
    {
      "bufferView": 2,
      "componentType": 5126,
      "count": 12248,
      "max": [
        133.38803100585938,
        305.42340087890625,
        520.5970458984375
      ],
      "min": [
        -133.3880157470703,
        -305.4234313964844,
        -0.09915000200271606
      ],
      "type": "VEC3"
    },
    {
      "bufferView": 2,
      "byteOffset": 146976,
      "componentType": 5126,
      "count": 12248,
      "max": [
        0.9998296499252319,
        0.9995732307434082,
        1.0
      ],
      "min": [
        -0.9994718432426453,
        -0.9995771646499634,
        -1.0
      ],
      "type": "VEC3"
    },
    {
      "bufferView": 3,
      "componentType": 5126,
      "count": 12248,
      "max": [
        0.9999810457229614,
        1.0,
        0.9993242621421814,
        1.0
      ],
      "min": [
        -0.9996663928031921,
        -0.9999898672103882,
        -0.9996603727340698,
        -1.0
      ],
      "type": "VEC4"
    },
    {
      "bufferView": 1,
      "componentType": 5126,
      "count": 12248,
      "max": [
        1.9970699548721313,
        0.9975299835205078
      ],
      "min": [
        0.0018400000408291817,
        0.007809999864548445
      ],
      "type": "VEC2"
    },
    {
      "bufferView": 1,
      "byteOffset": 97984,
      "componentType": 5126,
      "count": 12248,
      "max": [
        1.9970699548721313,
        0.9975299835205078
      ],
      "min": [
        0.0018400000408291817,
        0.007809999864548445
      ],
      "type": "VEC2"
    },
    {
      "bufferView": 0,
      "componentType": 5125,
      "count": 48075,
      "type": "SCALAR"
    }
  ],
  "asset": {
    "extras": {
      "author": "Skin-Tracker (https://sketchfab.com/stairwave)",
      "license": "CC-BY-4.0 (http://creativecommons.org/licenses/by/4.0/)",
      "source": "https://sketchfab.com/3d-models/pubg-green-parachute-92386c23092240a9b0948867ca88aebc",
      "title": "PUBG Green Parachute"
    },
    "generator": "Sketchfab-12.66.0",
    "version": "2.0"
  },
  "bufferViews": [
    {
      "buffer": 0,
      "byteLength": 192300,
      "name": "floatBufferViews",
      "target": 34963
    },
    {
      "buffer": 0,
      "byteLength": 195968,
      "byteOffset": 192300,
      "byteStride": 8,
      "name": "floatBufferViews",
      "target": 34962
    },
    {
      "buffer": 0,
      "byteLength": 293952,
      "byteOffset": 388268,
      "byteStride": 12,
      "name": "floatBufferViews",
      "target": 34962
    },
    {
      "buffer": 0,
      "byteLength": 195968,
      "byteOffset": 682220,
      "byteStride": 16,
      "name": "floatBufferViews",
      "target": 34962
    }
  ],
  "buffers": [
    {
      "byteLength": 878188,
      "uri": "scene.bin"
    }
  ],
  "images": [
    {
      "uri": "textures/EX_ParachutePlayer_Mesh_baseColor.png"
    },
    {
      "uri": "textures/EX_ParachutePlayer_Mesh_normal.png"
    }
  ],
  "materials": [
    {
      "doubleSided": true,
      "name": "EX_ParachutePlayer_Mesh",
      "normalTexture": {
        "index": 1
      },
      "pbrMetallicRoughness": {
        "baseColorTexture": {
          "index": 0
        },
        "metallicFactor": 0.0
      }
    }
  ],
  "meshes": [
    {
      "name": "Parachute_skinned.mo_0",
      "primitives": [
        {
          "attributes": {
            "NORMAL": 1,
            "POSITION": 0,
            "TANGENT": 2,
            "TEXCOORD_0": 3,
            "TEXCOORD_1": 4
          },
          "indices": 5,
          "material": 0,
          "mode": 4
        }
      ]
    }
  ],
  "nodes": [
    {
      "children": [
        1
      ],
      "matrix": [
        0.0,
        2.220446049250313e-16,
        -1.0,
        0.0,
        -1.0,
        0.0,
        0.0,
        0.0,
        0.0,
        1.0,
        2.220446049250313e-16,
        0.0,
        -3.745499952856335e-06,
        -2.1925795384781807e-21,
        9.874500392470509e-06,
        1.0
      ],
      "name": "Sketchfab_model"
    },
    {
      "children": [
        2
      ],
      "name": "Root"
    },
    {
      "children": [
        3
      ],
      "matrix": [
        0.04463000000000002,
        -0.0,
        0.0,
        0.0,
        0.0,
        0.04463000000000002,
        0.0,
        0.0,
        0.0,
        0.0,
        0.04463000000000002,
        0.0,
        0.0,
        0.0,
        -11.2244,
        1.0
      ],
      "name": "Parachute_skinned.mo"
    },
    {
      "mesh": 0,
      "name": "Parachute_skinned.mo_0"
    }
  ],
  "samplers": [
    {
      "magFilter": 9729,
      "minFilter": 9987,
      "wrapS": 10497,
      "wrapT": 10497
    }
  ],
  "scene": 0,
  "scenes": [
    {
      "name": "Sketchfab_Scene",
      "nodes": [
        0
      ]
    }
  ],
  "textures": [
    {
      "sampler": 0,
      "source": 0
    },
    {
      "sampler": 0,
      "source": 1
    }
  ]
}
