{
  "accessors": [
    {
      "bufferView": 2,
      "componentType": 5126,
      "count": 1370,
      "max": [
        1.8472540378570557,
        2.157029390335083,
        3.7593634128570557
      ],
      "min": [
        -3.0545971393585205,
        -2.2221570014953613,
        -8.7749652862548828
      ],
      "type": "VEC3"
    },
    {
      "bufferView": 2,
      "byteOffset": 16440,
      "componentType": 5126,
      "count": 1370,
      "max": [
        0.99978536367416382,
        0.99990177154541016,
        0.99413150548934937
      ],
      "min": [
        -0.99833858013153076,
        -0.99990177154541016,
        -0.99993777275085449
      ],
      "type": "VEC3"
    },
    {
      "bufferView": 3,
      "componentType": 5126,
      "count": 1370,
      "max": [
        0.99993652105331421,
        0.99990302324295044,
        0.99953418970108032,
        1
      ],
      "min": [
        -0.99736905097961426,
        -0.99997067451477051,
        -0.99893909692764282,
        -1
      ],
      "type": "VEC4"
    },
    {
      "bufferView": 1,
      "componentType": 5126,
      "count": 1370,
      "max": [
        0.99238026142120361,
        0.99730181694030762
      ],
      "min": [
        0.016898885369300842,
        0.0092736333608627319
      ],
      "type": "VEC2"
    },
    {
      "bufferView": 0,
      "componentType": 5125,
      "count": 2046,
      "max": [
        1369
      ],
      "min": [
        0
      ],
      "type": "SCALAR"
    }
  ],
  "asset": {
    "extras": {
      "author": "Hanesto (https://sketchfab.com/Hanesto)",
      "license": "CC-BY-4.0 (http://creativecommons.org/licenses/by/4.0/)",
      "source": "https://sketchfab.com/models/bcdc46c8fa2d4b428951e2108a4e7516",
      "title": "Pedestrian [002] [Medieval Assets]"
    },
    "generator": "Sketchfab-3.18.7",
    "version": "2.0"
  },
  "bufferViews": [
    {
      "buffer": 0,
      "byteLength": 8184,
      "byteOffset": 0,
      "name": "floatBufferViews",
      "target": 34963
    },
    {
      "buffer": 0,
      "byteLength": 10960,
      "byteOffset": 8184,
      "byteStride": 8,
      "name": "floatBufferViews",
      "target": 34962
    },
    {
      "buffer": 0,
      "byteLength": 32880,
      "byteOffset": 19144,
      "byteStride": 12,
      "name": "floatBufferViews",
      "target": 34962
    },
    {
      "buffer": 0,
      "byteLength": 21920,
      "byteOffset": 52024,
      "byteStride": 16,
      "name": "floatBufferViews",
      "target": 34962
    }
  ],
  "buffers": [
    {
      "byteLength": 73944,
      "uri": "scene.bin"
    }
  ],
  "images": [
    {
      "uri": "textures/Man2_baseColor.png"
    }
  ],
  "materials": [
    {
      "doubleSided": true,
      "emissiveFactor": [
        0,
        0,
        0
      ],
      "name": "Man2",
      "pbrMetallicRoughness": {
        "baseColorFactor": [
          1,
          1,
          1,
          1
        ],
        "baseColorTexture": {
          "index": 0,
          "texCoord": 0
        },
        "metallicFactor": 0,
        "roughnessFactor": 0.95770514949999996
      }
    }
  ],
  "meshes": [
    {
      "name": "wizzard_Man2_0",
      "primitives": [
        {
          "attributes": {
            "NORMAL": 1,
            "POSITION": 0,
            "TANGENT": 2,
            "TEXCOORD_0": 3
          },
          "indices": 4,
          "material": 0,
          "mode": 4
        }
      ]
    }
  ],
  "nodes": [
    {
      "children": [
        1
      ],
      "name": "RootNode (gltf orientation matrix)",
      "rotation": [
        -0.70710678118654746,
        -0,
        -0,
        0.70710678118654757
      ]
    },
    {
      "children": [
        2
      ],
      "name": "RootNode (model correction matrix)"
    },
    {
      "children": [
        3
      ],
      "matrix": [
        1,
        0,
        0,
        0,
        0,
        0,
        1,
        0,
        0,
        -1,
        0,
        0,
        0,
        0,
        0,
        1
      ],
      "name": "ab997f9996bc469e81e88f601114da0c.fbx"
    },
    {
      "children": [
        4
      ],
      "name": "RootNode"
    },
    {
      "children": [
        5
      ],
      "matrix": [
        -14.404838959374841,
        -1.42277475202702,
        -0.10705214934103419,
        0,
        -0.10648140322973487,
        -0.011052400464377152,
        14.47493162501711,
        0,
        -1.4228175803511547,
        14.405232502553703,
        0.0005325611273757126,
        0,
        -330.9871826171875,
        126.07333374023438,
        348.4683837890625,
        1
      ],
      "name": "wizzard"
    },
    {
      "mesh": 0,
      "name": "wizzard_Man2_0"
    }
  ],
  "samplers": [
    {
      "magFilter": 9729,
      "minFilter": 9987,
      "wrapS": 10497,
      "wrapT": 10497
    }
  ],
  "scene": 0,
  "scenes": [
    {
      "name": "OSG_Scene",
      "nodes": [
        0
      ]
    }
  ],
  "textures": [
    {
      "sampler": 0,
      "source": 0
    }
  ]
}

