{
  "accessors": [
    {
      "bufferView": 2,
      "componentType": 5126,
      "count": 12678,
      "max": [
        4761.11669921875,
        3182.384765625,
        3161.085693359375
      ],
      "min": [
        -4763.44091796875,
        -3163.517578125,
        -0.00018310546875
      ],
      "type": "VEC3"
    },
    {
      "bufferView": 2,
      "byteOffset": 152136,
      "componentType": 5126,
      "count": 12678,
      "max": [
        1.0,
        1.0,
        1.0
      ],
      "min": [
        -1.0,
        -1.0,
        -1.0
      ],
      "type": "VEC3"
    },
    {
      "bufferView": 1,
      "componentType": 5126,
      "count": 12678,
      "max": [
        1.000462532043457,
        1.6888847351074219
      ],
      "min": [
        0.0006053686374798417,
        0.002175569534301758
      ],
      "type": "VEC2"
    },
    {
      "bufferView": 1,
      "byteOffset": 101424,
      "componentType": 5126,
      "count": 12678,
      "max": [
        1.000462532043457,
        1.6888847351074219
      ],
      "min": [
        0.0006053686374798417,
        0.002175569534301758
      ],
      "type": "VEC2"
    },
    {
      "bufferView": 1,
      "byteOffset": 202848,
      "componentType": 5126,
      "count": 12678,
      "max": [
        0.9964687824249268,
        0.9936895370483398
      ],
      "min": [
        0.004869294818490744,
        0.004155261907726526
      ],
      "type": "VEC2"
    },
    {
      "bufferView": 1,
      "byteOffset": 304272,
      "componentType": 5126,
      "count": 12678,
      "max": [
        1.000462532043457,
        1.6888847351074219
      ],
      "min": [
        0.0006053686374798417,
        0.002175569534301758
      ],
      "type": "VEC2"
    },
    {
      "bufferView": 1,
      "byteOffset": 405696,
      "componentType": 5126,
      "count": 12678,
      "max": [
        1.000462532043457,
        1.6888847351074219
      ],
      "min": [
        0.0006053686374798417,
        0.002175569534301758
      ],
      "type": "VEC2"
    },
    {
      "bufferView": 0,
      "componentType": 5125,
      "count": 19071,
      "type": "SCALAR"
    }
  ],
  "asset": {
    "extras": {
      "author": "aitortilla01 (https://sketchfab.com/aitortilla01)",
      "license": "CC-BY-4.0 (http://creativecommons.org/licenses/by/4.0/)",
      "source": "https://sketchfab.com/3d-models/paris-police-station-6314692176a44290b1ba432f9ea4840f",
      "title": "Paris Police Station"
    },
    "generator": "Sketchfab-12.65.0",
    "version": "2.0"
  },
  "bufferViews": [
    {
      "buffer": 0,
      "byteLength": 76284,
      "name": "floatBufferViews",
      "target": 34963
    },
    {
      "buffer": 0,
      "byteLength": 507120,
      "byteOffset": 76284,
      "byteStride": 8,
      "name": "floatBufferViews",
      "target": 34962
    },
    {
      "buffer": 0,
      "byteLength": 304272,
      "byteOffset": 583404,
      "byteStride": 12,
      "name": "floatBufferViews",
      "target": 34962
    }
  ],
  "buffers": [
    {
      "byteLength": 887676,
      "uri": "scene.bin"
    }
  ],
  "images": [
    {
      "uri": "textures/parispolice_baseColor.png"
    }
  ],
  "materials": [
    {
      "alphaMode": "BLEND",
      "doubleSided": true,
      "name": "parispolice",
      "pbrMetallicRoughness": {
        "baseColorTexture": {
          "index": 0
        },
        "metallicFactor": 0.0,
        "roughnessFactor": 0.6
      }
    }
  ],
  "meshes": [
    {
      "name": "parispolice_parispolice_0",
      "primitives": [
        {
          "attributes": {
            "NORMAL": 1,
            "POSITION": 0,
            "TEXCOORD_0": 2,
            "TEXCOORD_1": 3,
            "TEXCOORD_2": 4,
            "TEXCOORD_3": 5,
            "TEXCOORD_4": 6
          },
          "indices": 7,
          "material": 0,
          "mode": 4
        }
      ]
    }
  ],
  "nodes": [
    {
      "children": [
        1
      ],
      "matrix": [
        1.0,
        0.0,
        0.0,
        0.0,
        0.0,
        2.220446049250313e-16,
        -1.0,
        0.0,
        0.0,
        1.0,
        2.220446049250313e-16,
        0.0,
        0.0,
        0.0,
        0.0,
        1.0
      ],
      "name": "Sketchfab_model"
    },
    {
      "children": [
        2
      ],
      "matrix": [
        1.0,
        0.0,
        0.0,
        0.0,
        0.0,
        0.0,
        1.0,
        0.0,
        0.0,
        -1.0,
        0.0,
        0.0,
        0.0,
        0.0,
        0.0,
        1.0
      ],
      "name": "parispolice.FBX"
    },
    {
      "children": [
        3
      ],
      "name": "RootNode"
    },
    {
      "children": [
        4
      ],
      "matrix": [
        1.0,
        0.0,
        0.0,
        0.0,
        0.0,
        2.220446049250313e-16,
        -1.0,
        0.0,
        0.0,
        1.0,
        2.220446049250313e-16,
        0.0,
        0.0,
        0.0,
        0.0,
        1.0
      ],
      "name": "parispolice"
    },
    {
      "mesh": 0,
      "name": "parispolice_parispolice_0"
    }
  ],
  "samplers": [
    {
      "magFilter": 9729,
      "minFilter": 9987,
      "wrapS": 10497,
      "wrapT": 10497
    }
  ],
  "scene": 0,
  "scenes": [
    {
      "name": "Sketchfab_Scene",
      "nodes": [
        0
      ]
    }
  ],
  "textures": [
    {
      "sampler": 0,
      "source": 0
    }
  ]
}
